# xmcd
#
# Track frame offsets: 
#        182
#        19845
#        32835
#        50802
#        59902
#        70910
#        85622
#        98210
#        111510
#        123322
#        139400
#        150907
#        163117
#        174555
#        185770
#        200840
#        211692
#        221482
#        233222
#        245840
#        257440
#
# Disc length: 3685 seconds
#
# Revision: 1
# Processed by: cddbd v1.5.2PL0 Copyright (c) Steve Scherf et al.
# Submitted via: ExactAudioCopy v0.95b4
#
DISCID=3e0e6315
DTITLE=Marty Robbins - Marty Robbins Golden Hitparade
DYEAR=1900
DGENRE=Country
TTITLE0=El Paso
TTITLE1=Devil Woman
TTITLE2=Big Iron
TTITLE3=Ruby Ann
TTITLE4=Singing The Blues
TTITLE5=Don't Worry
TTITLE6=Tonight Carmen
TTITLE7=Return To Me
TTITLE8=That's Alright
TTITLE9=My Woman, My Woman, My Wife
TTITLE10=A White Sport Coat (And A Pink Carnation)
TTITLE11=I'll Go On Alone
TTITLE12=Ribbon Of Darkness
TTITLE13=Begging To You
TTITLE14=I Walk Alone
TTITLE15=She Was onlly Seventeen (He Was One Year More)
TTITLE16=Just Married
TTITLE17=Amoung My Souvenirs
TTITLE18=I Couldn't Keep From Crying
TTITLE19=The Story Of My Life
TTITLE20=El Paso City
EXTD=ID3G: 2
EXTT0=
EXTT1=
EXTT2=
EXTT3=
EXTT4=
EXTT5=
EXTT6=
EXTT7=
EXTT8=
EXTT9=
EXTT10=
EXTT11=
EXTT12=
EXTT13=
EXTT14=
EXTT15=
EXTT16=
EXTT17=
EXTT18=
EXTT19=
EXTT20=
PLAYORDER=
